<mxfile host="app.diagrams.net" modified="2024-01-31T07:16:39.207Z" agent="Mozilla/5.0 (Macintosh; Intel Mac OS X 10_15_7) AppleWebKit/537.36 (KHTML, like Gecko) Chrome/120.0.0.0 Safari/537.36" etag="-9nwNdSpa5YwIeIq0KTY" version="22.1.16" type="github">
  <diagram name="第 1 页" id="966KfxQtyM0y_blYVRLk">
    <mxGraphModel dx="578" dy="334" grid="1" gridSize="10" guides="1" tooltips="1" connect="1" arrows="1" fold="1" page="1" pageScale="1" pageWidth="827" pageHeight="1169" math="0" shadow="0">
      <root>
        <mxCell id="0" />
        <mxCell id="1" parent="0" />
        <mxCell id="8nmGEP080YQe1HcGKxn9-6" value="" style="rounded=0;whiteSpace=wrap;html=1;" vertex="1" parent="1">
          <mxGeometry x="70" y="150" width="260" height="60" as="geometry" />
        </mxCell>
        <mxCell id="8nmGEP080YQe1HcGKxn9-2" value="用户服务" style="rounded=0;whiteSpace=wrap;html=1;" vertex="1" parent="1">
          <mxGeometry x="80" y="170" width="70" height="20" as="geometry" />
        </mxCell>
        <mxCell id="8nmGEP080YQe1HcGKxn9-4" value="支付服务" style="rounded=0;whiteSpace=wrap;html=1;" vertex="1" parent="1">
          <mxGeometry x="160" y="170" width="70" height="20" as="geometry" />
        </mxCell>
        <mxCell id="8nmGEP080YQe1HcGKxn9-5" value="拍卖服务" style="rounded=0;whiteSpace=wrap;html=1;" vertex="1" parent="1">
          <mxGeometry x="240" y="170" width="70" height="20" as="geometry" />
        </mxCell>
        <mxCell id="8nmGEP080YQe1HcGKxn9-7" value="Actor" style="shape=umlActor;verticalLabelPosition=bottom;verticalAlign=top;html=1;outlineConnect=0;" vertex="1" parent="1">
          <mxGeometry x="80" y="10" width="30" height="60" as="geometry" />
        </mxCell>
        <mxCell id="8nmGEP080YQe1HcGKxn9-8" value="Actor" style="shape=umlActor;verticalLabelPosition=bottom;verticalAlign=top;html=1;outlineConnect=0;" vertex="1" parent="1">
          <mxGeometry x="180" y="10" width="30" height="60" as="geometry" />
        </mxCell>
        <mxCell id="8nmGEP080YQe1HcGKxn9-9" value="Actor" style="shape=umlActor;verticalLabelPosition=bottom;verticalAlign=top;html=1;outlineConnect=0;" vertex="1" parent="1">
          <mxGeometry x="260" y="10" width="30" height="60" as="geometry" />
        </mxCell>
        <mxCell id="8nmGEP080YQe1HcGKxn9-10" value="" style="endArrow=none;dashed=1;html=1;rounded=0;" edge="1" parent="1">
          <mxGeometry width="50" height="50" relative="1" as="geometry">
            <mxPoint x="60" y="140" as="sourcePoint" />
            <mxPoint x="350" y="140" as="targetPoint" />
          </mxGeometry>
        </mxCell>
        <mxCell id="8nmGEP080YQe1HcGKxn9-13" value="" style="endArrow=classic;html=1;rounded=0;" edge="1" parent="1">
          <mxGeometry width="50" height="50" relative="1" as="geometry">
            <mxPoint x="100" y="100" as="sourcePoint" />
            <mxPoint x="100" y="130" as="targetPoint" />
          </mxGeometry>
        </mxCell>
        <mxCell id="8nmGEP080YQe1HcGKxn9-14" value="" style="endArrow=classic;html=1;rounded=0;" edge="1" parent="1">
          <mxGeometry width="50" height="50" relative="1" as="geometry">
            <mxPoint x="199.7" y="100" as="sourcePoint" />
            <mxPoint x="199.7" y="130" as="targetPoint" />
          </mxGeometry>
        </mxCell>
        <mxCell id="8nmGEP080YQe1HcGKxn9-15" value="" style="endArrow=classic;html=1;rounded=0;" edge="1" parent="1">
          <mxGeometry width="50" height="50" relative="1" as="geometry">
            <mxPoint x="280" y="100" as="sourcePoint" />
            <mxPoint x="280" y="130" as="targetPoint" />
          </mxGeometry>
        </mxCell>
      </root>
    </mxGraphModel>
  </diagram>
</mxfile>
